<?xml version="1.0" encoding="UTF-8" standalone="no"?><!-- Generator: Gravit.io --><svg xmlns="http://www.w3.org/2000/svg" xmlns:xlink="http://www.w3.org/1999/xlink" style="isolation:isolate" viewBox="0 0 89.8 89.8" width="89.8pt" height="89.8pt"><defs><clipPath id="_clipPath_qwqZtN3gIWIrzf9uU1BQY0hg9TPSZhCH"><rect width="89.8" height="89.8"/></clipPath></defs><g clip-path="url(#_clipPath_qwqZtN3gIWIrzf9uU1BQY0hg9TPSZhCH)"><path d="M 44.9 0 L 44.9 0 C 69.681 0 89.8 20.119 89.8 44.9 L 89.8 44.9 C 89.8 69.681 69.681 89.8 44.9 89.8 L 44.9 89.8 C 20.119 89.8 0 69.681 0 44.9 L 0 44.9 C 0 20.119 20.119 0 44.9 0 Z" style="stroke:none;fill:#F3305F;stroke-miterlimit:10;"/><path d=" M 71.746 31.431 C 71.101 29.032 69.209 27.141 66.811 26.495 C 62.428 25.296 44.899 25.296 44.899 25.296 C 44.899 25.296 27.371 25.296 22.989 26.449 C 20.636 27.094 18.699 29.032 18.053 31.431 C 16.9 35.813 16.9 44.9 16.9 44.9 C 16.9 44.9 16.9 54.033 18.053 58.369 C 18.699 60.768 20.59 62.659 22.989 63.305 C 27.417 64.504 44.9 64.504 44.9 64.504 C 44.9 64.504 62.428 64.504 66.811 63.351 C 69.21 62.705 71.101 60.814 71.747 58.415 C 72.9 54.033 72.9 44.946 72.9 44.946 C 72.9 44.946 72.946 35.813 71.746 31.431 L 71.746 31.431 Z  M 39.318 53.295 L 39.318 36.505 L 53.895 44.9 L 39.318 53.295 Z " fill="rgb(255,255,255)"/></g></svg>